<?xml version="1.0" encoding="utf-8"?>
<!-- Generator: Adobe Illustrator 26.1.0, SVG Export Plug-In . SVG Version: 6.00 Build 0)  -->
<svg version="1.1" id="Layer_1" xmlns="http://www.w3.org/2000/svg" xmlns:xlink="http://www.w3.org/1999/xlink" x="0px" y="0px"
	 viewBox="0 0 710.5 289.29" style="enable-background:new 0 0 710.5 289.29;" xml:space="preserve">
<style type="text/css">
	.st0{fill:#FFFFFF;}
	.st1{enable-background:new    ;}
</style>
<g>
	<g>
		<path class="st0" d="M85.02,38.77c-19.66-1.38-29.36,6.37-29.36,23.54v1.38h29.36v34.34H55.66v104.13H19.94V98.04H0V63.7h19.94
			v-1.38c0-39.05,21.88-60.37,65.08-57.88L85.02,38.77L85.02,38.77z"/>
		<path class="st0" d="M99.56,202.16V0h35.72v202.16H99.56z"/>
		<path class="st0" d="M222.51,206.04c-20.49,0-37.94-6.92-52.06-21.05c-14.12-14.12-21.05-31.57-21.05-52.06
			s6.92-37.66,21.05-51.79c14.12-14.12,31.57-21.32,52.06-21.32s37.94,7.2,52.06,21.32s21.32,31.29,21.32,51.79
			c0,20.49-7.2,37.94-21.32,52.06C260.45,199.12,243.01,206.04,222.51,206.04z M222.51,171.14c10.8,0,19.66-3.6,26.86-10.8
			s10.8-16.34,10.8-27.42c0-11.08-3.6-20.22-10.8-27.42s-16.06-10.8-26.86-10.8s-19.66,3.6-26.86,10.8
			c-6.92,7.2-10.52,16.34-10.52,27.42c0,11.08,3.6,20.22,10.52,27.42C202.85,167.55,211.71,171.14,222.51,171.14z"/>
		<path class="st0" d="M324.67,184.99c-13.85-14.12-20.77-31.29-20.77-52.06s6.92-37.94,20.77-52.06
			c14.12-14.12,31.57-21.05,52.34-21.05c26.86,0,50.68,13.85,62.03,35.72l-30.74,18c-5.54-11.35-17.45-18.55-31.57-18.55
			c-21.32,0-37.11,15.79-37.11,37.94c0,10.8,3.6,19.94,10.52,27.14c6.92,6.92,15.79,10.52,26.58,10.52
			c14.4,0,26.31-6.92,31.85-18.28l31.02,17.72c-12.18,21.88-35.72,36-62.59,36C356.24,206.04,338.8,199.12,324.67,184.99z"/>
		<path class="st0" d="M544.56,63.7h35.72v138.47h-35.72v-15.51c-8.58,13.02-22.43,19.38-41.26,19.38
			c-15.23,0-27.69-4.98-37.66-15.23c-9.69-10.25-14.68-24.09-14.68-42.09V63.7h35.72v80.59c0,18.55,10.8,28.52,27.42,28.52
			c18.55,0,30.46-11.35,30.46-34.34L544.56,63.7L544.56,63.7z"/>
		<path class="st0" d="M664.25,118.25c20.22,4.15,46.52,13.85,46.25,43.48c0,14.12-5.26,25.2-16.06,32.95
			c-10.52,7.48-23.82,11.35-39.6,11.35c-28.52,0-47.91-11.08-58.16-32.96l31.02-17.45c4.15,11.91,13.02,18,27.14,18
			c12.74,0,19.11-3.88,19.11-11.91c0-7.48-11.08-11.63-25.2-15.23c-20.49-5.26-46.25-13.85-46.25-42.65
			c0-13.57,4.98-24.37,14.95-32.12c10.25-8.03,22.71-11.91,37.66-11.91c22.43,0,41.82,10.52,52.62,29.35l-30.46,16.62
			c-4.43-9.42-11.91-14.12-22.16-14.12c-9.14,0-16.06,4.43-16.06,11.35C639.05,110.5,650.12,114.65,664.25,118.25z"/>
	</g>
	<g class="st1">
		<path class="st0" d="M376.51,261.21c2.12,2.25,3.17,4.98,3.17,8.24s-1.06,6.04-3.17,8.28c-2.07,2.25-4.62,3.35-7.58,3.35
			c-3.08,0-5.46-1.06-7.14-3.22v2.6h-5.68v-30.84h5.68v11.41c1.67-2.16,4.05-3.22,7.14-3.22
			C371.89,257.82,374.44,258.96,376.51,261.21z M367.88,275.66c1.76,0,3.22-0.57,4.36-1.72c1.19-1.19,1.76-2.69,1.76-4.49
			c0-1.81-0.57-3.3-1.76-4.45c-1.15-1.19-2.6-1.76-4.36-1.76c-1.76,0-3.22,0.57-4.36,1.76c-1.15,1.14-1.72,2.64-1.72,4.45
			c0,1.81,0.57,3.3,1.72,4.49C364.66,275.09,366.12,275.66,367.88,275.66z"/>
		<path class="st0" d="M397.14,258.43h6.08l-8.02,22.03c-2.29,6.34-5.99,9.12-11.63,8.81v-5.29c3.04,0.04,4.71-1.23,5.77-4.23
			l-9.03-21.32h6.21l5.73,14.8L397.14,258.43z"/>
	</g>
	<g>
		<path class="st0" d="M454.98,264.25v2.43c0,4.51-1.44,8.16-4.33,10.95c-2.88,2.79-6.62,4.19-11.18,4.19
			c-4.87,0-8.92-1.58-12.12-4.73c-3.2-3.2-4.78-7.08-4.78-11.63c0-4.6,1.58-8.47,4.73-11.67c3.2-3.2,7.12-4.78,11.81-4.78
			c5.9,0,11.04,2.88,13.75,7.35l-5.32,3.06c-1.49-2.57-4.73-4.37-8.47-4.37c-3.02,0-5.5,0.99-7.44,2.97
			c-1.94,1.94-2.88,4.42-2.88,7.44c0,2.97,0.99,5.45,2.93,7.39c1.98,1.94,4.6,2.88,7.84,2.88c4.82,0,8.07-2.25,9.19-5.99h-9.55v-5.5
			h15.82V264.25z"/>
		<path class="st0" d="M491.58,281.2l-6.35-10.95h-4.73v10.95h-6.22v-31.55h12.62c2.93,0,5.41,1.04,7.44,3.06
			c2.03,2.03,3.06,4.51,3.06,7.39c0,3.92-2.43,7.53-6.08,9.19l6.99,11.9L491.58,281.2L491.58,281.2z M480.49,255.46v9.33h6.4
			c2.34,0,4.28-2.12,4.28-4.69s-1.94-4.64-4.28-4.64H480.49z"/>
		<path class="st0" d="M516.81,249.65h6.22v31.55h-6.22V249.65z"/>
		<path class="st0" d="M556.29,249.65c4.33,0,7.93,1.53,10.82,4.55c2.93,3.02,4.37,6.76,4.37,11.22s-1.44,8.2-4.37,11.22
			c-2.88,3.02-6.49,4.55-10.82,4.55h-12.53v-31.55h12.53V249.65z M556.29,275.25c2.75,0,4.96-0.9,6.67-2.7
			c1.71-1.85,2.57-4.19,2.57-7.12s-0.86-5.27-2.57-7.08c-1.71-1.85-3.92-2.75-6.67-2.75h-6.31v19.65H556.29z"/>
		<path class="st0" d="M609.61,255.6h-12.62v7.48h12.26v5.95h-12.26v12.17h-6.22v-31.55h18.84V255.6z"/>
		<path class="st0" d="M629.03,249.65h6.22v31.55h-6.22V249.65z"/>
		<path class="st0" d="M676.85,249.65v5.95h-8.52v25.6h-6.22v-25.6h-8.47v-5.95H676.85z"/>
		<path class="st0" d="M695.19,249.65h6.22v31.55h-6.22V249.65z"/>
	</g>
</g>
</svg>
